<svg width="25" height="24" viewBox="0 0 25 24" fill="none" xmlns="http://www.w3.org/2000/svg">
<g clip-path="url(#clip0_1_5334)">
<path fill-rule="evenodd" clip-rule="evenodd" d="M8.78237 4.526L9.35938 6H19.8594C20.0873 6.00003 20.3123 6.052 20.5171 6.15199C20.722 6.25197 20.9014 6.39733 21.0416 6.57703C21.1819 6.75672 21.2794 6.96602 21.3266 7.18902C21.3739 7.41202 21.3697 7.64286 21.3144 7.864L19.8144 13.864C19.7332 14.1885 19.5459 14.4765 19.2823 14.6823C19.0187 14.8881 18.6938 15 18.3594 15H10.3594C10.0572 15 9.762 14.9088 9.51254 14.7382C9.26309 14.5676 9.07098 14.3256 8.96138 14.044L5.85938 6.5C5.46155 6.5 5.08002 6.34196 4.79871 6.06066C4.51741 5.77936 4.35938 5.39782 4.35938 5C4.35938 4.60218 4.51741 4.22064 4.79871 3.93934C5.08002 3.65804 5.46155 3.5 5.85938 3.5H7.35938C7.67424 3.50003 7.98111 3.59914 8.2365 3.78328C8.4919 3.96743 8.68288 4.22727 8.78237 4.526ZM10.8594 20.5C11.2572 20.5 11.6387 20.342 11.92 20.0607C12.2013 19.7794 12.3594 19.3978 12.3594 19C12.3594 18.6022 12.2013 18.2206 11.92 17.9393C11.6387 17.658 11.2572 17.5 10.8594 17.5C10.4616 17.5 10.08 17.658 9.79871 17.9393C9.51741 18.2206 9.35938 18.6022 9.35938 19C9.35938 19.3978 9.51741 19.7794 9.79871 20.0607C10.08 20.342 10.4616 20.5 10.8594 20.5ZM17.8594 20.5C18.2572 20.5 18.6387 20.342 18.92 20.0607C19.2013 19.7794 19.3594 19.3978 19.3594 19C19.3594 18.6022 19.2013 18.2206 18.92 17.9393C18.6387 17.658 18.2572 17.5 17.8594 17.5C17.4616 17.5 17.08 17.658 16.7987 17.9393C16.5174 18.2206 16.3594 18.6022 16.3594 19C16.3594 19.3978 16.5174 19.7794 16.7987 20.0607C17.08 20.342 17.4616 20.5 17.8594 20.5Z" fill="#343538"/>
</g>
<defs>
<clipPath id="clip0_1_5334">
<rect width="24" height="24" fill="white" transform="translate(0.859375)"/>
</clipPath>
</defs>
</svg>
