<svg width="25" height="24" viewBox="0 0 25 24" fill="none" xmlns="http://www.w3.org/2000/svg">
<path d="M12.6562 21L11.2063 19.7C9.52292 18.1833 8.13125 16.875 7.03125 15.775C5.93125 14.675 5.05625 13.6875 4.40625 12.8125C3.75625 11.9375 3.30208 11.1333 3.04375 10.4C2.78542 9.66666 2.65625 8.91666 2.65625 8.14999C2.65625 6.58333 3.18125 5.27499 4.23125 4.22499C5.28125 3.17499 6.58958 2.64999 8.15625 2.64999C9.02292 2.64999 9.84792 2.83333 10.6312 3.19999C11.4146 3.56666 12.0896 4.08333 12.6562 4.74999C13.2229 4.08333 13.8979 3.56666 14.6813 3.19999C15.4646 2.83333 16.2896 2.64999 17.1562 2.64999C18.7229 2.64999 20.0312 3.17499 21.0813 4.22499C22.1313 5.27499 22.6562 6.58333 22.6562 8.14999C22.6562 8.91666 22.5271 9.66666 22.2688 10.4C22.0104 11.1333 21.5562 11.9375 20.9062 12.8125C20.2563 13.6875 19.3813 14.675 18.2812 15.775C17.1813 16.875 15.7896 18.1833 14.1062 19.7L12.6562 21ZM12.6562 18.3C14.2563 16.8667 15.5729 15.6375 16.6062 14.6125C17.6396 13.5875 18.4563 12.6958 19.0562 11.9375C19.6562 11.1792 20.0729 10.5042 20.3062 9.91249C20.5396 9.32083 20.6562 8.73333 20.6562 8.14999C20.6562 7.14999 20.3229 6.31666 19.6562 5.64999C18.9896 4.98333 18.1562 4.64999 17.1562 4.64999C16.3729 4.64999 15.6479 4.87083 14.9812 5.31249C14.3146 5.75416 13.8562 6.31666 13.6062 6.99999H11.7063C11.4563 6.31666 10.9979 5.75416 10.3313 5.31249C9.66458 4.87083 8.93958 4.64999 8.15625 4.64999C7.15625 4.64999 6.32292 4.98333 5.65625 5.64999C4.98958 6.31666 4.65625 7.14999 4.65625 8.14999C4.65625 8.73333 4.77292 9.32083 5.00625 9.91249C5.23958 10.5042 5.65625 11.1792 6.25625 11.9375C6.85625 12.6958 7.67292 13.5875 8.70625 14.6125C9.73958 15.6375 11.0563 16.8667 12.6562 18.3Z" fill="black"/>
</svg>
