<svg width="24" height="24" viewBox="0 0 24 24" fill="none" xmlns="http://www.w3.org/2000/svg">
<path fill-rule="evenodd" clip-rule="evenodd" d="M19 9.5C19 13.147 15.069 18.629 13.098 21.147C12.9688 21.3154 12.8025 21.4519 12.6121 21.5457C12.4217 21.6396 12.2123 21.6885 12 21.6885C11.7877 21.6885 11.5783 21.6396 11.3879 21.5457C11.1975 21.4519 11.0312 21.3154 10.902 21.147C8.932 18.63 5 13.147 5 9.5C5 7.64348 5.7375 5.86301 7.05025 4.55025C8.36301 3.2375 10.1435 2.5 12 2.5C13.8565 2.5 15.637 3.2375 16.9497 4.55025C18.2625 5.86301 19 7.64348 19 9.5ZM14.998 9.605C14.9882 10.0015 14.9 10.3921 14.7383 10.7542C14.5766 11.1163 14.3447 11.4428 14.056 11.7148C13.7674 11.9867 13.4277 12.1987 13.0565 12.3385C12.6854 12.4783 12.2902 12.5432 11.8939 12.5293C11.4976 12.5154 11.1079 12.4231 10.7475 12.2577C10.387 12.0922 10.063 11.857 9.79404 11.5655C9.52511 11.274 9.31664 10.9321 9.18069 10.5596C9.04474 10.187 8.984 9.79118 9.002 9.395C9.03786 8.60556 9.38376 7.86216 9.96456 7.32628C10.5454 6.79039 11.3141 6.50532 12.1039 6.53298C12.8937 6.56064 13.6406 6.8988 14.1825 7.474C14.7244 8.0492 15.0175 8.81499 14.998 9.605Z" fill="#343538"/>
</svg>
