<svg width="35" height="33" viewBox="0 0 35 33" fill="none" xmlns="http://www.w3.org/2000/svg">
<path d="M17.3204 18.6498H17.0774C13.8335 18.5551 11.404 16.1624 11.404 13.2154C11.404 10.2144 13.9907 7.76758 17.1632 7.76758C20.3357 7.76758 22.9224 10.2144 22.9224 13.2154C22.9253 14.6274 22.3463 15.9848 21.3084 16.9995C20.2704 18.0142 18.8552 18.6062 17.3633 18.6498H17.3204ZM17.1489 9.7818C15.1482 9.7818 13.5333 11.3229 13.5333 13.2019C13.529 14.087 13.8891 14.939 14.5373 15.5774C15.1855 16.2158 16.0709 16.5904 17.006 16.622C17.115 16.6078 17.2256 16.6078 17.3347 16.622C18.2604 16.5753 19.132 16.1947 19.77 15.5585C20.408 14.9223 20.7639 14.0789 20.7645 13.2019C20.7645 11.3229 19.1496 9.7818 17.1489 9.7818ZM17.1489 31.1136C13.3047 31.1136 9.63198 29.7618 6.78812 27.3015C6.66511 27.1944 6.57009 27.0617 6.51056 26.9139C6.45104 26.7661 6.42865 26.6072 6.44515 26.4498C6.63093 24.8411 7.68844 23.3406 9.4462 22.2321C13.7048 19.5555 20.6073 19.5555 24.8516 22.2321C26.6094 23.3541 27.6669 24.8411 27.8527 26.4498C27.8955 26.7742 27.7669 27.0852 27.5097 27.3015C24.6833 29.7556 20.9855 31.1162 17.1489 31.1136ZM8.68879 26.1794C11.06 28.0588 14.0554 29.0879 17.1489 29.0859C20.25 29.0859 23.2368 28.0585 25.609 26.1794C25.3518 25.3548 24.6658 24.5573 23.6512 23.9084C20.1357 21.6914 14.1764 21.6914 10.6323 23.9084C9.61769 24.5573 8.94602 25.3548 8.68879 26.1794Z" fill="#A1A1A1"/>
<path d="M17.1488 31.1136C8.67445 31.1136 1.78632 24.5978 1.78632 16.5815C1.78632 8.56515 8.67445 2.04935 17.1488 2.04935C25.6233 2.04935 32.5114 8.56515 32.5114 16.5815C32.5114 24.5978 25.6233 31.1136 17.1488 31.1136ZM17.1488 4.07709C9.86058 4.07709 3.92993 9.68716 3.92993 16.5815C3.92993 23.4758 9.86058 29.0859 17.1488 29.0859C24.4371 29.0859 30.3678 23.4758 30.3678 16.5815C30.3678 9.68716 24.4371 4.07709 17.1488 4.07709Z" fill="#A1A1A1"/>
</svg>
