<svg width="34" height="37" viewBox="0 0 34 37" fill="none" xmlns="http://www.w3.org/2000/svg">
<path d="M17.087 5.75104C18.1834 5.75104 19.2552 6.05177 20.1668 6.61521C21.0785 7.17866 21.789 7.97949 22.2086 8.91646C22.6281 9.85343 22.7379 10.8844 22.524 11.8791C22.3101 12.8738 21.7821 13.7875 21.0069 14.5046C20.2316 15.2217 19.2439 15.7101 18.1685 15.9079C17.0932 16.1058 15.9786 16.0043 14.9656 15.6161C13.9527 15.228 13.0869 14.5708 12.4778 13.7276C11.8687 12.8843 11.5436 11.8929 11.5436 10.8788C11.5436 9.5188 12.1276 8.21455 13.1672 7.25291C14.2068 6.29128 15.6168 5.75104 17.087 5.75104ZM17.087 3.69995C15.5521 3.69995 14.0516 4.12098 12.7753 4.9098C11.4991 5.69861 10.5043 6.81979 9.91694 8.13155C9.32953 9.4433 9.17584 10.8867 9.4753 12.2793C9.77475 13.6718 10.5139 14.951 11.5993 15.9549C12.6847 16.9589 14.0675 17.6426 15.573 17.9196C17.0784 18.1966 18.6389 18.0545 20.057 17.5111C21.4751 16.9678 22.6872 16.0476 23.54 14.8671C24.3927 13.6865 24.8479 12.2986 24.8479 10.8788C24.8479 8.97482 24.0303 7.14886 22.5748 5.80257C21.1194 4.45629 19.1454 3.69995 17.087 3.69995Z" fill="#050019"/>
<path d="M28 31.45H25.8V26.0542C25.8 24.6231 25.2205 23.2507 24.1891 22.2387C23.1576 21.2268 21.7587 20.6583 20.3 20.6583H13.7C12.2413 20.6583 10.8424 21.2268 9.81091 22.2387C8.77946 23.2507 8.2 24.6231 8.2 26.0542V31.45H6V26.0542C6 24.0507 6.81125 22.1292 8.25528 20.7126C9.69931 19.2959 11.6578 18.5 13.7 18.5H20.3C22.3422 18.5 24.3007 19.2959 25.7447 20.7126C27.1888 22.1292 28 24.0507 28 26.0542V31.45Z" fill="#050019"/>
<path d="M33 18.5C33 28.2463 25.7586 36 17 36C8.24137 36 1 28.2463 1 18.5C1 8.75373 8.24137 1 17 1C25.7586 1 33 8.75373 33 18.5Z" stroke="#050019" stroke-width="2"/>
</svg>
