<svg width="25" height="24" viewBox="0 0 25 24" fill="none" xmlns="http://www.w3.org/2000/svg">
<path fill-rule="evenodd" clip-rule="evenodd" d="M16.9422 14.275C17.8728 12.8215 18.2336 11.0754 17.9553 9.37204C17.677 7.6687 16.7793 6.12822 15.4345 5.04643C14.0896 3.96463 12.3926 3.41778 10.6692 3.51091C8.94579 3.60403 7.31754 4.33055 6.09713 5.55096C4.87673 6.77137 4.1502 8.39962 4.05708 10.123C3.96396 11.8464 4.5108 13.5435 5.5926 14.8883C6.6744 16.2331 8.21488 17.1308 9.91821 17.4091C11.6215 17.6874 13.3676 17.3266 14.8212 16.396L18.4852 20.061C18.7666 20.3424 19.1482 20.5005 19.5462 20.5005C19.9441 20.5005 20.3258 20.3424 20.6072 20.061C20.8886 19.7796 21.0467 19.398 21.0467 19C21.0467 18.6021 20.8886 18.2204 20.6072 17.939L16.9422 14.275ZM11.0462 14.5C9.98532 14.5 8.96791 14.0786 8.21776 13.3284C7.46761 12.5783 7.04619 11.5609 7.04619 10.5C7.04619 9.43915 7.46761 8.42173 8.21776 7.67159C8.96791 6.92144 9.98532 6.50001 11.0462 6.50001C12.1071 6.50001 13.1245 6.92144 13.8746 7.67159C14.6248 8.42173 15.0462 9.43915 15.0462 10.5C15.0462 11.5609 14.6248 12.5783 13.8746 13.3284C13.1245 14.0786 12.1071 14.5 11.0462 14.5Z" fill="#343538"/>
</svg>
