<svg width="52" height="52" viewBox="0 0 52 52" fill="none" xmlns="http://www.w3.org/2000/svg">
<circle cx="25.9551" cy="26.045" r="25.9551" fill="black"/>
<path d="M20.3932 21.0278V19.9038C20.3932 17.2967 22.6303 14.736 25.4112 14.4927C26.1839 14.4215 26.9639 14.5028 27.701 14.7313C28.4382 14.9598 29.1162 15.3305 29.6913 15.8194C30.2664 16.3084 30.726 16.9049 31.0404 17.5704C31.3548 18.2359 31.5171 18.9558 31.5168 19.6837V21.2827M22.2471 37.6321H29.6629C34.6314 37.6321 35.5213 35.7665 35.7808 33.4955L36.7078 26.5432C37.0415 23.716 36.1764 21.4102 30.8988 21.4102H21.0112C15.7337 21.4102 14.8685 23.716 15.2022 26.5432L16.1292 33.4955C16.3887 35.7665 17.2786 37.6321 22.2471 37.6321Z" stroke="white" stroke-width="1.5" stroke-miterlimit="10" stroke-linecap="round" stroke-linejoin="round"/>
</svg>
