<svg width="30" height="31" viewBox="0 0 30 31" fill="none" xmlns="http://www.w3.org/2000/svg">
<path d="M20.3452 30.7285C17.4581 30.7285 15.0025 29.3474 14.0338 28.3895C13.1628 27.6786 7.66532 22.3711 3.18814 18.0269C3.00634 17.8505 2.90051 17.7501 2.88966 17.7365C2.38224 17.2291 2.06748 16.7 1.97794 16.2007C1.87483 15.6336 2.0512 15.1208 2.49621 14.6731C2.90322 14.266 3.4025 14.0517 3.94519 14.0517C4.58285 14.0517 5.22322 14.3447 5.74963 14.8738L10.2567 19.2045L3.04975 11.7642C2.21944 10.9339 1.80157 9.55821 2.85167 8.51082C3.25869 8.1038 3.75796 7.88944 4.30065 7.88944C4.93831 7.88944 5.57868 8.18249 6.10509 8.71162L13.4694 15.8914L4.62084 6.82034C4.1487 6.3482 3.85836 5.77024 3.8068 5.19499C3.75525 4.58175 3.9669 4.02007 4.42004 3.56692C4.82706 3.15991 5.32633 2.94554 5.86902 2.94554C6.50397 2.94554 7.14434 3.23588 7.67346 3.765L16.6984 12.5647L10.1427 5.82722C9.66784 5.35237 9.3775 4.77441 9.32866 4.19916C9.27711 3.58863 9.48876 3.02695 9.9419 2.5738C10.3489 2.16679 10.8482 1.95242 11.3909 1.95242C12.0285 1.95242 12.6689 2.24548 13.1953 2.7746L15.1517 4.693C18.6385 8.11194 21.5527 10.9746 21.8648 11.2948C22.0167 11.4169 22.2148 11.463 22.2989 11.4223C22.3532 11.3952 22.4129 11.2704 22.402 11.0072C22.3858 10.5459 22.3206 9.97337 22.2528 9.36827C22.1171 8.15264 21.976 6.89361 22.1524 6.06329C22.5377 4.62245 23.2948 4.01193 23.8592 3.74872C24.6352 3.39055 25.3868 3.51537 25.5306 3.5832C26.9416 4.24528 26.6621 5.35237 26.2768 6.88818L26.2687 6.92617L26.2253 7.24364C25.9431 8.63293 27.3921 12.4724 28.841 15.6011L28.8628 15.6445C29.8315 17.761 31.5762 23.1906 26.9091 27.8577C24.7627 29.9986 22.44 30.7285 20.3452 30.7285ZM3.94519 14.8657C3.625 14.8657 3.32109 14.9987 3.07146 15.2483C2.81368 15.5061 2.72414 15.7557 2.77841 16.0542C2.8381 16.3825 3.0796 16.7733 3.45677 17.1531C3.45948 17.1559 3.56802 17.2617 3.75525 17.4408C10.1101 23.6084 13.9469 27.2743 14.5602 27.7681L14.5927 27.798C16.0906 29.2958 21.6558 31.955 26.3311 27.2797C30.6373 22.9735 29.0174 17.9455 28.1193 15.9809L28.1003 15.9402C27.1669 13.9269 25.0449 9.04266 25.4221 7.0944L25.4845 6.68739C25.9024 5.02676 25.9268 4.67944 25.2186 4.33754C25.0097 4.29955 23.5118 4.11775 22.9393 6.25323C22.7955 6.93431 22.9339 8.17978 23.056 9.27873C23.1265 9.9001 23.1917 10.4889 23.2079 10.9801C23.2351 11.7534 22.8688 12.0492 22.6462 12.1577C22.1931 12.3775 21.6531 12.1903 21.3167 11.9081L21.2814 11.8755C21.1159 11.6964 17.1787 7.83517 14.5738 5.27911L12.6146 3.35527C11.9471 2.68505 11.087 2.5738 10.509 3.15177C10.2268 3.43396 10.0993 3.765 10.1291 4.13132C10.1617 4.51392 10.3679 4.91279 10.7125 5.2574L17.2818 11.9949C17.5911 12.3096 17.5911 12.8252 17.2763 13.14C16.9752 13.4411 16.4433 13.4466 16.134 13.1481L7.10092 4.34297C6.43342 3.67546 5.57054 3.56421 4.99529 4.14217C4.71309 4.42437 4.58556 4.75541 4.61541 5.12173C4.65068 5.50432 4.8569 5.90591 5.1988 6.24509L14.0528 15.3243C14.3648 15.639 14.3621 16.1546 14.0473 16.4694C13.7462 16.7705 13.2143 16.776 12.905 16.4775L5.53255 9.28958C4.86505 8.61664 4.00217 8.50811 3.42692 9.08607C2.72414 9.78885 3.09859 10.6599 3.63043 11.1944L10.8401 18.6401C11.1494 18.9549 11.1467 19.4677 10.8319 19.7798C10.528 20.0837 10.0016 20.0864 9.69226 19.7906L5.17981 15.4545C4.79992 15.0719 4.36306 14.8657 3.94519 14.8657Z" fill="#EDA600"/>
<path d="M21.1511 11.5607C19.6614 14.6025 19.854 18.8599 22.0899 22.2761C22.3423 22.7374 22.7737 22.5122 22.5539 22.0373C19.854 16.2604 22.6842 12.098 22.6842 12.098L21.1511 11.5607Z" fill="#EDA600"/>
<path d="M15.2927 0.153417C16.1122 -0.0609456 16.9859 -0.0419514 17.8352 0.15613C18.6791 0.359638 19.523 0.788363 20.1498 1.48843C20.763 2.18307 21.1402 3.02696 21.2677 3.91154C21.3871 4.78798 21.2759 5.69156 20.8607 6.44047C20.8119 5.5993 20.6653 4.82597 20.4184 4.11233C20.2909 3.75687 20.1417 3.41769 19.9599 3.0975C19.7808 2.78003 19.5691 2.46527 19.3439 2.20749C18.8853 1.67837 18.2639 1.26593 17.5666 0.945743C16.8665 0.614702 16.104 0.370492 15.2927 0.153417Z" fill="#B0BEC5"/>
<path d="M15.5179 2.72575C15.9711 2.43812 16.5382 2.37843 17.0727 2.4734C17.6127 2.56837 18.1283 2.837 18.5353 3.20874C18.9396 3.58591 19.2272 4.06076 19.4063 4.55461C19.4931 4.80153 19.5366 5.06202 19.5773 5.31438C19.5908 5.57487 19.5908 5.83536 19.5501 6.09585C19.3629 5.89777 19.2164 5.69968 19.078 5.50703C18.9179 5.32523 18.7931 5.13257 18.6493 4.9562C18.3671 4.60617 18.093 4.28869 17.7972 4.00649C17.4933 3.73244 17.1731 3.49094 16.8014 3.282C16.4324 3.06764 16.0172 2.88856 15.5179 2.72575Z" fill="#90A4AE"/>
<path d="M0.00518621 19.9182C0.387782 20.6671 0.786658 21.3617 1.25066 21.9749C1.71194 22.5882 2.24107 23.1092 2.85702 23.4483C3.1555 23.6139 3.51096 23.7577 3.85828 23.8662C4.20831 23.9775 4.57191 24.0534 4.94637 24.105C5.69528 24.1973 6.48218 24.181 7.31521 24.0534C6.66941 24.6151 5.80653 24.9136 4.92738 24.9787C4.03737 25.0384 3.13379 24.8458 2.32518 24.3899C1.51115 23.9259 0.91419 23.1879 0.539735 22.4037C0.16528 21.6141 -0.0355155 20.7647 0.00518621 19.9182Z" fill="#B0BEC5"/>
<path d="M14.3051 28.0856C13.2332 27.2255 3.28033 17.5466 3.16907 17.4408C2.7295 17.0012 2.45273 16.5453 2.37675 16.1275C2.29806 15.6933 2.43102 15.3134 2.78377 14.9607C3.11209 14.6323 3.51368 14.4587 3.94512 14.4587C4.47153 14.4587 5.0115 14.7083 5.46194 15.1615L9.97439 19.4976C10.0531 19.5735 10.1562 19.6115 10.2566 19.6115C10.3624 19.6115 10.4655 19.5708 10.5442 19.4921C10.7016 19.3347 10.7016 19.0797 10.5469 18.9223L3.34274 11.482C2.62096 10.7603 2.28178 9.65589 3.13923 8.79844C3.46755 8.47012 3.86914 8.29645 4.30058 8.29645C4.82699 8.29645 5.36697 8.54609 5.8174 8.99924L13.1871 16.1844C13.2658 16.2604 13.3689 16.3011 13.472 16.3011C13.5751 16.3011 13.681 16.2604 13.7597 16.1817C13.917 16.0243 13.9197 15.7693 13.7624 15.6092L4.91111 6.53543C4.50138 6.1257 4.25445 5.63456 4.21104 5.157C4.17034 4.67129 4.34128 4.22086 4.7076 3.85454C5.03592 3.52622 5.43752 3.35256 5.86895 3.35256C6.39536 3.35256 6.93534 3.60219 7.38577 4.05263L16.4134 12.855C16.4921 12.931 16.5952 12.9717 16.6983 12.9717C16.8014 12.9717 16.9072 12.931 16.9859 12.8523C17.1433 12.6949 17.146 12.4399 16.9887 12.2798L10.433 5.54231C10.0205 5.12986 9.7736 4.64144 9.7329 4.16388C9.6922 3.67817 9.86314 3.22774 10.2295 2.86142C10.5578 2.5331 10.9594 2.35944 11.3908 2.35944C11.9172 2.35944 12.4572 2.60907 12.9076 3.06222C15.3117 5.42292 21.5879 11.596 21.7996 11.8239C22.6055 12.3802 22.7683 11.539 22.809 10.9936C22.8551 10.3587 22.1279 8.14179 22.5512 6.14741C23.2621 3.49637 25.3108 3.93052 25.3569 3.95223C26.4803 4.47864 26.2659 5.26554 25.867 6.84748L25.8263 7.15952C25.4085 9.22717 28.2793 15.3541 28.4909 15.8127C29.617 18.2765 30.9141 23.272 26.6187 27.5673C21.9108 32.2752 16.0824 29.8629 14.3051 28.0856Z" fill="url(#paint0_radial_1_26)"/>
<path d="M2.56936 19.6007C2.83257 20.0565 3.09306 20.4229 3.37797 20.743C3.66017 21.0632 3.96407 21.3264 4.29511 21.5652C4.63158 21.7959 5.00061 21.9994 5.4022 22.2029C5.60299 22.306 5.81735 22.3874 6.029 22.5068C6.24879 22.6017 6.4713 22.7021 6.70465 22.846C6.45773 22.9382 6.20538 22.9925 5.9476 23.0332C5.69254 23.044 5.42933 23.0576 5.16884 23.0223C4.64786 22.9518 4.12688 22.77 3.67102 22.4525C3.2233 22.1296 2.85156 21.6819 2.64805 21.1745C2.44183 20.6698 2.38213 20.1054 2.56936 19.6007Z" fill="#90A4AE"/>
<defs>
<radialGradient id="paint0_radial_1_26" cx="0" cy="0" r="1" gradientUnits="userSpaceOnUse" gradientTransform="translate(10.1036 9.24341) rotate(-45) scale(24.6944)">
<stop offset="0.3533" stop-color="#FFCA28"/>
<stop offset="0.8723" stop-color="#FFB300"/>
</radialGradient>
</defs>
</svg>
